<svg width="24" height="24" viewBox="0 0 24 24" fill="none" xmlns="http://www.w3.org/2000/svg">
<path d="M15.4706 12.8848L16.9849 21.4072C17.0019 21.5076 16.9878 21.6107 16.9446 21.7028C16.9013 21.795 16.831 21.8717 16.743 21.9228C16.6549 21.9739 16.5534 21.9969 16.4519 21.9887C16.3505 21.9805 16.254 21.9415 16.1753 21.877L12.5968 19.1911C12.424 19.0621 12.2141 18.9923 11.9985 18.9923C11.7829 18.9923 11.573 19.0621 11.4002 19.1911L7.81574 21.876C7.73709 21.9404 7.64068 21.9793 7.53935 21.9875C7.43803 21.9957 7.33661 21.9728 7.24864 21.9219C7.16067 21.8709 7.09032 21.7944 7.04698 21.7024C7.00364 21.6105 6.98937 21.5075 7.00608 21.4072L8.51945 12.8848" stroke="#032137" stroke-width="1.99917" stroke-linecap="round" stroke-linejoin="round"/>
<path d="M11.995 13.994C15.3073 13.994 17.9925 11.3089 17.9925 7.99653C17.9925 4.6842 15.3073 1.99902 11.995 1.99902C8.68268 1.99902 5.99751 4.6842 5.99751 7.99653C5.99751 11.3089 8.68268 13.994 11.995 13.994Z" stroke="#032137" stroke-width="1.99917" stroke-linecap="round" stroke-linejoin="round"/>
</svg>
