<svg width="24" height="24" viewBox="0 0 24 24" fill="none" xmlns="http://www.w3.org/2000/svg">
<path d="M19.9917 12.9944C19.9917 17.9923 16.4931 20.4913 12.3349 21.9407C12.1171 22.0145 11.8806 22.0109 11.6651 21.9307C7.49688 20.4913 3.99834 17.9923 3.99834 12.9944V5.99732C3.99834 5.73221 4.10365 5.47797 4.29111 5.29051C4.47857 5.10305 4.73281 4.99774 4.99792 4.99774C6.99709 4.99774 9.49605 3.79823 11.2353 2.27887C11.4471 2.09794 11.7165 1.99854 11.995 1.99854C12.2735 1.99854 12.5429 2.09794 12.7547 2.27887C14.504 3.80823 16.9929 4.99774 18.9921 4.99774C19.2572 4.99774 19.5114 5.10305 19.6989 5.29051C19.8864 5.47797 19.9917 5.73221 19.9917 5.99732V12.9944Z" stroke="#032137" stroke-width="1.99917" stroke-linecap="round" stroke-linejoin="round"/>
</svg>
