<svg width="24" height="24" viewBox="0 0 24 24" fill="none" xmlns="http://www.w3.org/2000/svg">
<path d="M19.4059 14.4081C20.9913 12.8228 21.9908 11.4953 21.9908 9.49615C21.9908 8.38381 21.6534 7.29764 21.0231 6.38111C20.3928 5.46457 19.4994 4.76078 18.4607 4.36268C17.422 3.96459 16.2871 3.89092 15.2057 4.15142C14.1243 4.41191 13.1473 4.9943 12.4038 5.82168M19.4059 14.4081C19.2088 14.6053 18.9747 14.7617 18.7171 14.8684C18.4595 14.9751 18.1834 15.0301 17.9045 15.0301C17.6257 15.0301 17.3496 14.9751 17.092 14.8684C16.8344 14.7617 16.6003 14.6053 16.4032 14.4081C16.6166 14.6011 16.7886 14.8355 16.9087 15.0971C17.0288 15.3586 17.0944 15.6418 17.1016 15.9295C17.1089 16.2172 17.0575 16.5034 16.9507 16.7706C16.8439 17.0379 16.6839 17.2806 16.4805 17.4841C16.277 17.6876 16.0342 17.8476 15.767 17.9544C15.4997 18.0612 15.2136 18.1125 14.9259 18.1053C14.6382 18.0981 14.3549 18.0324 14.0934 17.9124C13.8318 17.7923 13.5974 17.6203 13.4044 17.4068C13.6017 17.6034 13.7584 17.8369 13.8654 18.0941C13.9724 18.3512 14.0277 18.6269 14.028 18.9054C14.0284 19.1839 13.9739 19.4598 13.8675 19.7172C13.7612 19.9746 13.6052 20.2085 13.4084 20.4056C13.2185 20.5956 12.9922 20.7454 12.7431 20.846C12.4939 20.9465 12.2271 20.9959 11.9585 20.991C11.6899 20.9862 11.425 20.9272 11.1796 20.8177C10.9343 20.7082 10.7136 20.5504 10.5306 20.3536L4.99792 14.9939C3.49854 13.4945 1.99917 11.7952 1.99917 9.49615C1.99939 8.3839 2.33697 7.29787 2.96732 6.38149C3.59768 5.46511 4.49116 4.76147 5.52977 4.3635C6.56839 3.96554 7.70329 3.89195 8.7846 4.15247C9.86591 4.41299 10.8428 4.99536 11.5862 5.82268C11.6973 5.92597 11.8435 5.9833 11.9952 5.98311C12.1469 5.98293 12.2929 5.92524 12.4038 5.82168M19.4059 14.4081C19.7807 14.0332 19.9912 13.5248 19.9912 12.9947C19.9912 12.4646 19.7807 11.9562 19.4059 11.5813L17.5257 9.70006C17.302 9.47625 17.0364 9.29871 16.744 9.17758C16.4517 9.05645 16.1384 8.99411 15.8219 8.99411C15.5055 8.99411 15.1921 9.05645 14.8998 9.17758C14.6074 9.29871 14.3418 9.47625 14.1181 9.70006L12.4088 11.4093C12.0339 11.7841 11.5255 11.9947 10.9954 11.9947C10.4653 11.9947 9.95691 11.7841 9.58201 11.4093C9.20722 11.0344 8.99668 10.526 8.99668 9.99594C8.99668 9.46583 9.20722 8.95743 9.58201 8.58253L12.4038 5.82168" stroke="#032137" stroke-width="1.99917" stroke-linecap="round" stroke-linejoin="round"/>
</svg>
