<svg width="28" height="28" viewBox="0 0 28 28" fill="none" xmlns="http://www.w3.org/2000/svg">
<path d="M4.66472 16.3263C4.44404 16.3271 4.22767 16.2652 4.04076 16.1479C3.85385 16.0305 3.70406 15.8626 3.6088 15.6635C3.51354 15.4645 3.47673 15.2424 3.50262 15.0233C3.52852 14.8041 3.61607 14.5968 3.7551 14.4254L15.3003 2.53039C15.3869 2.43043 15.5049 2.36288 15.635 2.33882C15.765 2.31477 15.8994 2.33565 16.016 2.39803C16.1326 2.46041 16.2246 2.56059 16.2768 2.68212C16.329 2.80365 16.3383 2.93931 16.3032 3.06683L14.0641 10.0872C13.9981 10.2639 13.9759 10.454 13.9995 10.6412C14.0231 10.8283 14.0917 11.007 14.1995 11.1618C14.3073 11.3166 14.451 11.4429 14.6184 11.53C14.7857 11.617 14.9717 11.6622 15.1603 11.6616H23.3236C23.5443 11.6608 23.7607 11.7227 23.9476 11.84C24.1345 11.9574 24.2843 12.1253 24.3795 12.3244C24.4748 12.5234 24.5116 12.7454 24.4857 12.9646C24.4598 13.1838 24.3723 13.3911 24.2332 13.5625L12.688 25.4575C12.6014 25.5575 12.4834 25.625 12.3534 25.6491C12.2233 25.6731 12.089 25.6522 11.9723 25.5899C11.8557 25.5275 11.7637 25.4273 11.7116 25.3058C11.6594 25.1842 11.6501 25.0486 11.6851 24.9211L13.9242 17.9007C13.9902 17.7239 14.0124 17.5339 13.9888 17.3467C13.9652 17.1596 13.8966 16.9809 13.7888 16.8261C13.681 16.6713 13.5373 16.545 13.3699 16.4579C13.2026 16.3709 13.0166 16.3257 12.828 16.3263H4.66472Z" stroke="#032137" stroke-width="2.33236" stroke-linecap="round" stroke-linejoin="round"/>
</svg>
