<svg width="28" height="28" viewBox="0 0 28 28" fill="none" xmlns="http://www.w3.org/2000/svg">
<path d="M17.4927 13.9941L6.5621 24.9248C6.33238 25.1546 6.05965 25.3369 5.75948 25.4612C5.45931 25.5856 5.13758 25.6497 4.81266 25.6497C4.15644 25.6499 3.52706 25.3893 3.06297 24.9253C2.59888 24.4614 2.3381 23.8321 2.33799 23.1759C2.33788 22.5197 2.59846 21.8903 3.06239 21.4262L13.9942 10.4956" stroke="#032137" stroke-width="2.33236" stroke-linecap="round" stroke-linejoin="round"/>
<path d="M20.9913 17.4926L25.656 12.8279" stroke="#032137" stroke-width="2.33236" stroke-linecap="round" stroke-linejoin="round"/>
<path d="M25.0729 13.4111L22.8408 11.179C22.4034 10.7417 22.1576 10.1486 22.1574 9.53002V9.12886C22.1573 8.51033 21.9115 7.91718 21.4741 7.47988L19.5417 5.54751C18.2299 4.23593 16.4509 3.49893 14.5959 3.49854H10.4956L11.9452 4.9481C13.2571 6.26019 13.9941 8.03961 13.9942 9.89504V11.6618L16.3265 13.9942H17.6933C18.3118 13.9943 18.905 14.2401 19.3423 14.6775L21.5743 16.9096" stroke="#032137" stroke-width="2.33236" stroke-linecap="round" stroke-linejoin="round"/>
</svg>
