<svg width="28" height="28" viewBox="0 0 28 28" fill="none" xmlns="http://www.w3.org/2000/svg">
<path d="M17.4927 2.33228H6.99708C6.3785 2.33228 5.78526 2.57801 5.34786 3.01541C4.91045 3.45281 4.66472 4.04606 4.66472 4.66464V23.3235C4.66472 23.9421 4.91045 24.5354 5.34786 24.9728C5.78526 25.4102 6.3785 25.6559 6.99708 25.6559H20.9913C21.6098 25.6559 22.2031 25.4102 22.6405 24.9728C23.0779 24.5354 23.3236 23.9421 23.3236 23.3235V8.16318L17.4927 2.33228Z" stroke="#032137" stroke-width="2.33236" stroke-linecap="round" stroke-linejoin="round"/>
<path d="M16.3265 2.33228V6.997C16.3265 7.61558 16.5723 8.20883 17.0097 8.64623C17.4471 9.08363 18.0403 9.32936 18.6589 9.32936H23.3236" stroke="#032137" stroke-width="2.33236" stroke-linecap="round" stroke-linejoin="round"/>
<path d="M10.4956 17.4928L12.828 19.8251L17.4927 15.1604" stroke="#032137" stroke-width="2.33236" stroke-linecap="round" stroke-linejoin="round"/>
</svg>
