<svg width="79" height="38" viewBox="0 0 79 38" fill="none" xmlns="http://www.w3.org/2000/svg">
<path d="M19.4811 15.0329C16.3093 15.0329 13.7421 17.5956 13.7421 20.7619C13.7421 23.9282 16.3093 26.4909 19.4811 26.4909C22.6529 26.4909 25.22 23.9282 25.22 20.7619C25.22 17.5956 22.6529 15.0329 19.4811 15.0329ZM19.4811 24.242C17.5437 24.242 15.9939 22.6948 15.9939 20.7609C15.9939 18.8269 17.5437 17.2797 19.4811 17.2797C21.4184 17.2797 22.9683 18.8269 22.9683 20.7609C22.9683 22.6948 21.4184 24.242 19.4811 24.242Z" fill="white"/>
<path d="M28.9245 21.8493V12.0355H26.6728V21.8493C26.6728 24.387 28.7313 26.4659 31.2733 26.4659H32.3626V24.2181H31.2733C29.9657 24.2181 28.9245 23.1546 28.9245 21.8493Z" fill="white"/>
<path d="M36.0681 15.0329H33.8164V26.4669H36.0681V15.0329Z" fill="white"/>
<path d="M48.6593 14.9849C47.3277 14.9849 46.1413 15.5646 45.3183 16.4842C44.5194 15.5657 43.3089 14.9849 41.9773 14.9849C39.5073 14.9849 37.5219 16.9909 37.5219 19.4566V26.4669H39.7736V19.4566C39.7736 18.2242 40.7658 17.2328 41.9773 17.2328C43.1888 17.2328 44.205 18.2232 44.205 19.4566V26.4669H46.4567V19.4566C46.4567 18.2242 47.4489 17.2328 48.6604 17.2328C49.8719 17.2328 50.8881 18.2232 50.8881 19.4566V26.4669H53.1398V19.4566C53.1398 16.9909 51.1304 14.9849 48.6604 14.9849H48.6593Z" fill="white"/>
<path d="M60.3304 15.0329C57.1586 15.0329 54.5915 17.5956 54.5915 20.7619V29.4643H56.8432V26.4909H60.3304C63.5022 26.4909 66.0694 23.9282 66.0694 20.7619C66.0694 17.5956 63.5022 15.0329 60.3304 15.0329ZM60.3304 24.242H56.8432V20.7369C56.8432 18.8269 58.4171 17.2797 60.3304 17.2797C62.2438 17.2797 63.8177 18.8269 63.8177 20.7609C63.8177 22.6948 62.2678 24.242 60.3304 24.242Z" fill="white"/>
<path d="M73.2611 15.0329C70.0892 15.0329 67.5221 17.5956 67.5221 20.7619C67.5221 23.9282 70.0892 26.4909 73.2611 26.4909C76.4329 26.4909 79 23.9282 79 20.7619C79 17.5956 76.4329 15.0329 73.2611 15.0329ZM73.2611 24.242C71.3237 24.242 69.7738 22.6948 69.7738 20.7609C69.7738 18.8269 71.3237 17.2797 73.2611 17.2797C75.1984 17.2797 76.7483 18.8269 76.7483 20.7609C76.7483 22.6948 75.1984 24.242 73.2611 24.242Z" fill="white"/>
<path d="M7.65543 15.0235L3.47472 14.9693C3.0413 14.9641 2.87211 15.5292 3.23869 15.7617L6.78336 18.0084C7.03924 18.1711 7.37553 18.0241 7.43506 17.728C7.57814 17.0128 7.7818 16.3028 8.04916 15.6074C8.15674 15.328 7.95517 15.0266 7.65438 15.0235H7.65543Z" fill="white"/>
<path d="M7.62723 25.5891L4.89197 28.4457C4.59745 28.7533 4.88257 29.2558 5.29928 29.1609L9.13011 28.2862C9.42463 28.2195 9.55727 27.8796 9.39017 27.6294C8.98285 27.0184 8.6288 26.3772 8.33115 25.7131C8.20582 25.4337 7.83924 25.368 7.62723 25.5891Z" fill="white"/>
<path d="M6.5891 19.687L0.270527 22.2132C-0.132609 22.3737 -0.0699453 22.9617 0.357211 23.0347L7.12174 24.1972C7.43088 24.2504 7.68885 23.9668 7.60948 23.6634C7.30451 22.502 7.1583 21.2999 7.17814 20.0936C7.18336 19.786 6.87527 19.5723 6.5891 19.687Z" fill="white"/>
<path d="M9.23351 13.2616C9.80374 12.3649 10.4659 11.5621 11.198 10.8553C11.4226 10.6384 11.3515 10.2641 11.0612 10.1484L4.70711 7.5972C4.30502 7.4356 3.94261 7.90267 4.20058 8.2509L8.25804 13.7265C8.4429 13.9757 8.82097 13.9517 8.97659 13.6838C9.05909 13.542 9.14369 13.4013 9.23246 13.2626L9.23351 13.2616Z" fill="white"/>
<path d="M25.6973 7.63056L25.7997 3.36848C25.8101 2.93373 25.2399 2.76066 25.0059 3.12765L22.6999 6.75271C22.537 7.00814 22.6842 7.34385 22.9808 7.40328C23.7004 7.54716 24.4127 7.75046 25.1114 8.01944C25.3892 8.12579 25.689 7.9277 25.6963 7.63056H25.6973Z" fill="white"/>
<path d="M21.0007 6.55045L18.327 0.261588C18.1578 -0.136679 17.5709 -0.0626561 17.5051 0.364803L16.4837 7.10302C16.4377 7.40849 16.7197 7.65975 17.0195 7.58052C18.1829 7.27504 19.386 7.127 20.5955 7.14576C20.9067 7.15098 21.1218 6.83611 20.9996 6.55045H21.0007Z" fill="white"/>
<path d="M15.1521 7.5972L12.0941 4.37875C11.7912 4.05972 11.2607 4.34643 11.363 4.77389L12.3991 9.10269C12.469 9.39357 12.8074 9.52389 13.057 9.35812C13.6805 8.94318 14.3343 8.58452 15.0121 8.28426C15.2837 8.16332 15.3557 7.81301 15.151 7.5972H15.1521Z" fill="white"/>
<path d="M13.3035 31.4525C12.4074 30.8843 11.6043 30.2254 10.8972 29.4967C10.6789 29.2715 10.3019 29.3444 10.187 29.6364L7.68258 36.017C7.52384 36.4204 7.9959 36.777 8.34264 36.5164L13.7777 32.4263C14.0241 32.2407 13.9991 31.8654 13.7317 31.7111C13.5876 31.6277 13.4455 31.5422 13.3035 31.4525Z" fill="white"/>
<path d="M15.1061 33.0665L15.2722 36.8208C15.291 37.241 15.8393 37.3869 16.0649 37.0324L18.0586 33.8974C18.2216 33.642 18.0743 33.3062 17.7777 33.2468C17.0738 33.1061 16.3761 32.908 15.691 32.6484C15.4006 32.5379 15.0925 32.7568 15.1061 33.0665Z" fill="white"/>
</svg>
