<svg width="20" height="20" viewBox="0 0 20 20" fill="none" xmlns="http://www.w3.org/2000/svg">
<path d="M4.16493 4.165C4.16485 3.87187 4.2421 3.5839 4.38891 3.33017C4.53571 3.07645 4.74686 2.86595 5.00104 2.71993C5.25522 2.57392 5.54343 2.49755 5.83656 2.49854C6.12969 2.49954 6.41737 2.57786 6.67056 2.7256L16.6639 8.55484C16.9161 8.70118 17.1255 8.91115 17.2711 9.16376C17.4167 9.41637 17.4935 9.70278 17.4937 9.99436C17.494 10.2859 17.4177 10.5725 17.2725 10.8253C17.1273 11.0782 16.9183 11.2885 16.6664 11.4353L6.67056 17.2662C6.41737 17.414 6.12969 17.4923 5.83656 17.4933C5.54343 17.4943 5.25522 17.4179 5.00104 17.2719C4.74686 17.1259 4.53571 16.9154 4.38891 16.6616C4.2421 16.4079 4.16485 16.1199 4.16493 15.8268V4.165Z" fill="#032137" stroke="#032137" stroke-width="1.66597" stroke-linecap="round" stroke-linejoin="round"/>
</svg>
