<svg width="48" height="48" viewBox="0 0 48 48" fill="none" xmlns="http://www.w3.org/2000/svg">
<path d="M31.9982 5.99951C30.9374 5.99951 29.9201 6.42092 29.17 7.17102C28.4198 7.92112 27.9984 8.93848 27.9984 9.99929V21.9986C27.9984 23.0594 28.4198 24.0768 29.17 24.8269C29.9201 25.577 30.9374 25.9984 31.9982 25.9984C32.5286 25.9984 33.0373 26.2091 33.4124 26.5842C33.7874 26.9592 33.9981 27.4679 33.9981 27.9983V29.9982C33.9981 31.059 33.5767 32.0763 32.8266 32.8264C32.0765 33.5765 31.0591 33.998 29.9983 33.998C29.4679 33.998 28.9592 34.2087 28.5842 34.5837C28.2091 34.9588 27.9984 35.4674 27.9984 35.9978V39.9976C27.9984 40.528 28.2091 41.0367 28.5842 41.4118C28.9592 41.7868 29.4679 41.9975 29.9983 41.9975C33.1808 41.9975 36.2328 40.7333 38.4831 38.483C40.7335 36.2327 41.9977 33.1806 41.9977 29.9982V9.99929C41.9977 8.93848 41.5763 7.92112 40.8262 7.17102C40.0761 6.42092 39.0587 5.99951 37.9979 5.99951H31.9982Z" stroke="#FFD700" stroke-opacity="0.2" stroke-width="3.99978" stroke-linecap="round" stroke-linejoin="round"/>
<path d="M9.99944 5.99951C8.93863 5.99951 7.92128 6.42092 7.17117 7.17102C6.42107 7.92112 5.99966 8.93848 5.99966 9.99929V21.9986C5.99966 23.0594 6.42107 24.0768 7.17117 24.8269C7.92128 25.577 8.93863 25.9984 9.99944 25.9984C10.5298 25.9984 11.0385 26.2091 11.4136 26.5842C11.7886 26.9592 11.9993 27.4679 11.9993 27.9983V29.9982C11.9993 31.059 11.5779 32.0763 10.8278 32.8264C10.0777 33.5765 9.06036 33.998 7.99955 33.998C7.46915 33.998 6.96047 34.2087 6.58542 34.5837C6.21037 34.9588 5.99966 35.4674 5.99966 35.9978V39.9976C5.99966 40.528 6.21037 41.0367 6.58542 41.4118C6.96047 41.7868 7.46915 41.9975 7.99955 41.9975C11.182 41.9975 14.234 40.7333 16.4844 38.483C18.7347 36.2327 19.9989 33.1806 19.9989 29.9982V9.99929C19.9989 8.93848 19.5775 7.92112 18.8274 7.17102C18.0773 6.42092 17.0599 5.99951 15.9991 5.99951H9.99944Z" stroke="#FFD700" stroke-opacity="0.2" stroke-width="3.99978" stroke-linecap="round" stroke-linejoin="round"/>
</svg>
