<svg width="20" height="20" viewBox="0 0 20 20" fill="none" xmlns="http://www.w3.org/2000/svg">
<path d="M9.60017 1.91166C9.63667 1.83791 9.69306 1.77582 9.76298 1.73242C9.83289 1.68902 9.91355 1.66602 9.99584 1.66602C10.0781 1.66602 10.1588 1.68902 10.2287 1.73242C10.2986 1.77582 10.355 1.83791 10.3915 1.91166L12.3157 5.8092C12.4425 6.06573 12.6296 6.28768 12.861 6.45598C13.0924 6.62428 13.3612 6.73391 13.6443 6.77547L17.9475 7.4052C18.0291 7.41702 18.1057 7.45141 18.1687 7.50449C18.2317 7.55758 18.2786 7.62723 18.3041 7.70558C18.3295 7.78393 18.3326 7.86785 18.3129 7.94784C18.2931 8.02783 18.2514 8.10071 18.1924 8.15822L15.0804 11.1886C14.8752 11.3886 14.7216 11.6355 14.6329 11.908C14.5443 12.1805 14.5232 12.4705 14.5714 12.753L15.3061 17.0345C15.3205 17.116 15.3117 17.1999 15.2807 17.2767C15.2497 17.3534 15.1978 17.4199 15.1308 17.4685C15.0639 17.5171 14.9846 17.546 14.902 17.5517C14.8195 17.5575 14.7369 17.5399 14.6639 17.501L10.8172 15.4785C10.5637 15.3454 10.2817 15.2759 9.99542 15.2759C9.70914 15.2759 9.42714 15.3454 9.17368 15.4785L5.32778 17.501C5.25475 17.5397 5.17234 17.557 5.08992 17.5512C5.0075 17.5453 4.92838 17.5165 4.86156 17.4679C4.79473 17.4193 4.74289 17.3529 4.71192 17.2763C4.68095 17.1997 4.6721 17.1159 4.68638 17.0345L5.42024 12.7538C5.46872 12.4712 5.44772 12.181 5.35905 11.9084C5.27038 11.6357 5.11671 11.3887 4.91129 11.1886L1.79925 8.15906C1.73977 8.10161 1.69762 8.02861 1.6776 7.94837C1.65759 7.86814 1.66051 7.78389 1.68603 7.70524C1.71156 7.62658 1.75866 7.55667 1.82197 7.50348C1.88529 7.45029 1.96227 7.41595 2.04415 7.40437L6.34652 6.77547C6.62995 6.73423 6.89912 6.62474 7.13085 6.45642C7.36258 6.2881 7.54994 6.06599 7.6768 5.8092L9.60017 1.91166Z" fill="#FFD700" stroke="#FFD700" stroke-width="1.66597" stroke-linecap="round" stroke-linejoin="round"/>
</svg>
