<svg width="19" height="19" viewBox="0 0 19 19" fill="none" xmlns="http://www.w3.org/2000/svg">
<g clip-path="url(#clip0_3_486)">
<path d="M9.0017 1.79283C9.03593 1.72368 9.08881 1.66546 9.15436 1.62477C9.21992 1.58407 9.29554 1.5625 9.3727 1.5625C9.44987 1.5625 9.52549 1.58407 9.59105 1.62477C9.6566 1.66546 9.70948 1.72368 9.74371 1.79283L11.548 5.44741C11.6668 5.68795 11.8423 5.89606 12.0593 6.05387C12.2762 6.21167 12.5283 6.31447 12.7937 6.35344L16.8287 6.94392C16.9052 6.955 16.977 6.98725 17.0361 7.03702C17.0951 7.0868 17.1391 7.15211 17.163 7.22557C17.1869 7.29904 17.1898 7.37773 17.1713 7.45273C17.1528 7.52774 17.1136 7.59607 17.0583 7.65L14.1403 10.4915C13.9479 10.679 13.8039 10.9105 13.7207 11.166C13.6376 11.4216 13.6178 11.6935 13.6631 11.9583L14.352 15.973C14.3655 16.0494 14.3572 16.1281 14.3281 16.2C14.2991 16.272 14.2504 16.3343 14.1876 16.3799C14.1248 16.4255 14.0505 16.4525 13.973 16.4579C13.8956 16.4633 13.8183 16.4468 13.7498 16.4104L10.1428 14.514C9.90517 14.3892 9.64075 14.324 9.37231 14.324C9.10388 14.324 8.83946 14.3892 8.6018 14.514L4.99564 16.4104C4.92717 16.4466 4.8499 16.4629 4.77261 16.4574C4.69533 16.4519 4.62114 16.4249 4.55848 16.3793C4.49582 16.3337 4.44721 16.2715 4.41817 16.1997C4.38914 16.1278 4.38084 16.0493 4.39423 15.973L5.08234 11.9591C5.1278 11.6941 5.1081 11.422 5.02496 11.1664C4.94182 10.9107 4.79773 10.6791 4.60511 10.4915L1.68707 7.65078C1.6313 7.59691 1.59178 7.52846 1.57301 7.45323C1.55424 7.378 1.55698 7.299 1.58091 7.22525C1.60485 7.1515 1.64901 7.08595 1.70838 7.03607C1.76775 6.98619 1.83993 6.95399 1.91671 6.94314L5.95088 6.35344C6.21664 6.31477 6.46903 6.21211 6.68631 6.05428C6.9036 5.89645 7.07928 5.68819 7.19823 5.44741L9.0017 1.79283Z" fill="#FFD700" stroke="#FFD700" stroke-width="1.56212" stroke-linecap="round" stroke-linejoin="round"/>
</g>
<defs>
<clipPath id="clip0_3_486">
<rect width="18.7454" height="18.7454" fill="white"/>
</clipPath>
</defs>
</svg>
