<svg width="32" height="32" viewBox="0 0 32 32" fill="none" xmlns="http://www.w3.org/2000/svg">
<path d="M14.6606 26.656C12.3203 26.6631 10.0628 25.7904 8.33588 24.2109C6.60895 22.6315 5.53871 20.4607 5.33742 18.1291C5.13613 15.7974 5.81849 13.4753 7.24917 11.6233C8.67986 9.77122 10.7544 8.52451 13.0612 8.13041C20.6581 6.66435 22.6572 5.97131 25.3228 2.66602C26.6556 5.33157 27.9883 8.23703 27.9883 13.3282C27.9883 20.6585 21.6177 26.656 14.6606 26.656Z" stroke="#032137" stroke-width="2.66556" stroke-linecap="round" stroke-linejoin="round"/>
<path d="M2.66556 27.9882C2.66556 23.9898 5.1312 20.8445 9.43607 19.9915C12.6614 19.3518 15.9933 17.3259 17.3261 15.9932" stroke="#032137" stroke-width="2.66556" stroke-linecap="round" stroke-linejoin="round"/>
</svg>
