<svg width="32" height="32" viewBox="0 0 32 32" fill="none" xmlns="http://www.w3.org/2000/svg">
<path d="M19.9917 27.9882V17.3259C19.9917 16.9725 19.8513 16.6335 19.6013 16.3835C19.3514 16.1336 19.0124 15.9932 18.6589 15.9932H13.3278C12.9743 15.9932 12.6353 16.1336 12.3854 16.3835C12.1354 16.6335 11.995 16.9725 11.995 17.3259V27.9882" stroke="#032137" stroke-width="2.66556" stroke-linecap="round" stroke-linejoin="round"/>
<path d="M3.99834 13.3285C3.99824 12.9408 4.08275 12.5577 4.24595 12.2059C4.40915 11.8542 4.64713 11.5423 4.94328 11.292L14.2727 3.2967C14.7538 2.89008 15.3634 2.66699 15.9933 2.66699C16.6233 2.66699 17.2328 2.89008 17.714 3.2967L27.0434 11.292C27.3395 11.5423 27.5775 11.8542 27.7407 12.2059C27.9039 12.5577 27.9884 12.9408 27.9883 13.3285V25.3235C27.9883 26.0305 27.7075 26.7085 27.2076 27.2084C26.7077 27.7082 26.0297 27.9891 25.3228 27.9891H6.66389C5.95694 27.9891 5.27895 27.7082 4.77906 27.2084C4.27917 26.7085 3.99834 26.0305 3.99834 25.3235V13.3285Z" stroke="#032137" stroke-width="2.66556" stroke-linecap="round" stroke-linejoin="round"/>
</svg>
