<svg width="32" height="32" viewBox="0 0 32 32" fill="none" xmlns="http://www.w3.org/2000/svg">
<path d="M5.33113 18.6589C5.07892 18.6598 4.83164 18.5891 4.61803 18.455C4.40442 18.3209 4.23323 18.1289 4.12436 17.9014C4.0155 17.6739 3.97342 17.4202 4.00301 17.1697C4.03261 16.9193 4.13267 16.6824 4.29156 16.4865L17.4861 2.89215C17.585 2.77791 17.7199 2.70071 17.8685 2.67322C18.0172 2.64573 18.1707 2.6696 18.304 2.74089C18.4373 2.81218 18.5424 2.92667 18.602 3.06556C18.6617 3.20445 18.6723 3.35949 18.6323 3.50523L16.0733 11.5286C15.9979 11.7305 15.9725 11.9477 15.9995 12.1616C16.0264 12.3755 16.1049 12.5797 16.228 12.7566C16.3512 12.9335 16.5155 13.0779 16.7068 13.1774C16.898 13.2769 17.1105 13.3285 17.3261 13.3278H26.6556C26.9078 13.3269 27.1551 13.3977 27.3687 13.5317C27.5823 13.6658 27.7535 13.8578 27.8623 14.0853C27.9712 14.3128 28.0133 14.5665 27.9837 14.817C27.9541 15.0674 27.854 15.3044 27.6951 15.5002L14.5006 29.0946C14.4017 29.2088 14.2668 29.286 14.1182 29.3135C13.9695 29.341 13.816 29.3171 13.6827 29.2458C13.5494 29.1745 13.4443 29.0601 13.3847 28.9212C13.325 28.7823 13.3144 28.6272 13.3545 28.4815L15.9134 20.4582C15.9888 20.2562 16.0142 20.039 15.9872 19.8251C15.9603 19.6112 15.8819 19.407 15.7587 19.2301C15.6355 19.0532 15.4712 18.9088 15.28 18.8093C15.0887 18.7098 14.8762 18.6582 14.6606 18.6589H5.33113Z" stroke="#032137" stroke-width="2.66556" stroke-linecap="round" stroke-linejoin="round"/>
</svg>
