<svg width="15" height="19" viewBox="0 0 15 19" fill="none" xmlns="http://www.w3.org/2000/svg">
<path d="M14.1608 7.4969C14.1608 11.656 9.54686 15.9875 7.9975 17.3253C7.85317 17.4338 7.67747 17.4925 7.49688 17.4925C7.31629 17.4925 7.14059 17.4338 6.99625 17.3253C5.4469 15.9875 0.832987 11.656 0.832987 7.4969C0.832987 5.72952 1.53507 4.03454 2.7848 2.78482C4.03452 1.53509 5.7295 0.833008 7.49688 0.833008C9.26425 0.833008 10.9592 1.53509 12.209 2.78482C13.4587 4.03454 14.1608 5.72952 14.1608 7.4969Z" stroke="#FFD700" stroke-width="1.66597" stroke-linecap="round" stroke-linejoin="round"/>
<path d="M7.49688 9.99586C8.87701 9.99586 9.99584 8.87704 9.99584 7.4969C9.99584 6.11676 8.87701 4.99794 7.49688 4.99794C6.11674 4.99794 4.99792 6.11676 4.99792 7.4969C4.99792 8.87704 6.11674 9.99586 7.49688 9.99586Z" stroke="#FFD700" stroke-width="1.66597" stroke-linecap="round" stroke-linejoin="round"/>
</svg>
