<svg width="180" height="111" viewBox="0 0 180 111" fill="none" xmlns="http://www.w3.org/2000/svg">
<path d="M108.968 104.336C109.115 104.706 109.148 105.113 109.062 105.502L107.998 108.791C107.963 108.958 107.972 109.13 108.023 109.293C108.075 109.455 108.166 109.602 108.29 109.719C108.414 109.836 108.566 109.919 108.731 109.961C108.896 110.003 109.069 110.002 109.233 109.958L112.645 108.961C113.012 108.888 113.393 108.92 113.743 109.053C115.878 110.05 118.296 110.26 120.571 109.648C122.845 109.036 124.831 107.64 126.177 105.707C127.523 103.773 128.142 101.426 127.927 99.0805C127.711 96.7346 126.674 94.5403 124.998 92.8847C123.322 91.2291 121.115 90.2186 118.767 90.0316C116.418 89.8445 114.079 90.4929 112.162 91.8623C110.245 93.2316 108.874 95.2341 108.289 97.5162C107.705 99.7983 107.945 102.214 108.968 104.336Z" stroke="#FFD700" stroke-width="1.99917" stroke-linecap="round" stroke-linejoin="round"/>
<path d="M67.4935 94.4981H67.5035M56.9979 90H66.9938C69.754 90 71.9917 92.2376 71.9917 94.9979V104.994C71.9917 107.754 69.754 109.992 66.9938 109.992H56.9979C54.2376 109.992 52 107.754 52 104.994V94.9979C52 92.2376 54.2376 90 56.9979 90ZM65.9942 99.3668C66.1175 100.199 65.9754 101.048 65.5881 101.795C65.2008 102.541 64.5879 103.147 63.8367 103.525C63.0855 103.903 62.2342 104.034 61.4039 103.901C60.5736 103.767 59.8065 103.375 59.2118 102.781C58.6172 102.186 58.2251 101.419 58.0915 100.588C57.9579 99.7582 58.0895 98.9069 58.4676 98.1557C58.8457 97.4045 59.4511 96.7916 60.1976 96.4043C60.9441 96.0169 61.7937 95.8748 62.6256 95.9982C63.4741 96.124 64.2597 96.5194 64.8663 97.126C65.4729 97.7326 65.8683 98.5182 65.9942 99.3668Z" stroke="#FFD700" stroke-width="1.99917" stroke-linecap="round" stroke-linejoin="round"/>
<path d="M43.1914 34.5687C35.9007 34.5687 30 40.5053 30 47.8403C30 55.1753 35.9007 61.1118 43.1914 61.1118C50.482 61.1118 56.3828 55.1753 56.3828 47.8403C56.3828 40.5053 50.482 34.5687 43.1914 34.5687ZM43.1914 55.9022C38.7382 55.9022 35.1757 52.3181 35.1757 47.8379C35.1757 43.3577 38.7382 39.7735 43.1914 39.7735C47.6445 39.7735 51.207 43.3577 51.207 47.8379C51.207 52.3181 47.6445 55.9022 43.1914 55.9022Z" fill="white"/>
<path d="M64.8977 50.3593V27.625H59.722V50.3593C59.722 56.2379 64.4536 61.0539 70.2967 61.0539H72.8006V55.8467H70.2967C67.2911 55.8467 64.8977 53.3832 64.8977 50.3593Z" fill="white"/>
<path d="M81.3179 34.5687H76.1422V61.0563H81.3179V34.5687Z" fill="white"/>
<path d="M110.26 34.4576C107.199 34.4576 104.472 35.8005 102.58 37.9307C100.744 35.8029 97.9614 34.4576 94.9006 34.4576C89.2232 34.4576 84.6596 39.1045 84.6596 44.8164V61.0563H89.8353V44.8164C89.8353 41.9617 92.1159 39.6648 94.9006 39.6648C97.6853 39.6648 100.021 41.9592 100.021 44.8164V61.0563H105.197V44.8164C105.197 41.9617 107.477 39.6648 110.262 39.6648C113.047 39.6648 115.383 41.9592 115.383 44.8164V61.0563H120.558V44.8164C120.558 39.1045 115.94 34.4576 110.262 34.4576H110.26Z" fill="white"/>
<path d="M137.087 34.5687C129.796 34.5687 123.895 40.5053 123.895 47.8403V68H129.071V61.1118H137.087C144.377 61.1118 150.278 55.1753 150.278 47.8403C150.278 40.5053 144.377 34.5687 137.087 34.5687ZM137.087 55.9022H129.071V47.7823C129.071 43.3577 132.689 39.7735 137.087 39.7735C141.485 39.7735 145.102 43.3577 145.102 47.8379C145.102 52.3181 141.54 55.9022 137.087 55.9022Z" fill="white"/>
<path d="M166.809 34.5687C159.518 34.5687 153.617 40.5053 153.617 47.8403C153.617 55.1753 159.518 61.1118 166.809 61.1118C174.099 61.1118 180 55.1753 180 47.8403C180 40.5053 174.099 34.5687 166.809 34.5687ZM166.809 55.9022C162.355 55.9022 158.793 52.3181 158.793 47.8379C158.793 43.3577 162.355 39.7735 166.809 39.7735C171.262 39.7735 174.824 43.3577 174.824 47.8379C174.824 52.3181 171.262 55.9022 166.809 55.9022Z" fill="white"/>
<path d="M17.1676 34.2982L7.79221 34.1744C6.82024 34.1625 6.44083 35.4526 7.2629 35.9834L15.212 41.1127C15.7858 41.484 16.5399 41.1484 16.6734 40.4724C16.9943 38.8396 17.451 37.2187 18.0506 35.6311C18.2918 34.9932 17.8398 34.3053 17.1653 34.2982H17.1676Z" fill="white"/>
<path d="M17.1044 58.419L10.9704 64.9407C10.31 65.6428 10.9494 66.7901 11.8839 66.5735L20.4747 64.5765C21.1351 64.4241 21.4326 63.6482 21.0578 63.077C20.1444 61.6822 19.3504 60.2184 18.683 58.7022C18.4019 58.0643 17.5798 57.9144 17.1044 58.419Z" fill="white"/>
<path d="M14.7763 44.9447L0.606667 50.7119C-0.297381 51.0785 -0.156855 52.4209 0.801061 52.5875L15.9708 55.2414C16.6641 55.3628 17.2426 54.7154 17.0646 54.0228C16.3807 51.3712 16.0528 48.6269 16.0973 45.873C16.109 45.1709 15.4181 44.6829 14.7763 44.9447Z" fill="white"/>
<path d="M20.7065 30.2757C21.9853 28.2287 23.4702 26.396 25.112 24.7822C25.6155 24.2871 25.4563 23.4327 24.8052 23.1685L10.5559 17.3442C9.65418 16.9752 8.84147 18.0415 9.41997 18.8365L18.519 31.3372C18.9336 31.9061 19.7814 31.8514 20.1304 31.2397C20.3154 30.916 20.5051 30.5946 20.7042 30.2781L20.7065 30.2757Z" fill="white"/>
<path d="M57.6273 17.4203L57.8568 7.69014C57.8802 6.6976 56.6015 6.30249 56.0768 7.14032L50.9055 15.4162C50.5401 15.9994 50.8704 16.7658 51.5355 16.9014C53.1492 17.2299 54.7465 17.694 56.3134 18.3081C56.9364 18.5509 57.6086 18.0987 57.625 17.4203H57.6273Z" fill="white"/>
<path d="M47.0949 14.9544L41.0991 0.597197C40.7197 -0.312033 39.4035 -0.143042 39.2559 0.832833L36.9653 16.216C36.8623 16.9133 37.4946 17.487 38.1668 17.3061C40.7759 16.6087 43.474 16.2707 46.1862 16.3135C46.8841 16.3254 47.3666 15.6066 47.0926 14.9544H47.0949Z" fill="white"/>
<path d="M33.9792 17.3442L27.1215 9.99653C26.4423 9.2682 25.2525 9.92275 25.482 10.8986L27.8054 20.7811C27.9623 21.4452 28.7212 21.7427 29.2809 21.3643C30.6792 20.417 32.1453 19.5982 33.6653 18.9127C34.2743 18.6366 34.4359 17.8369 33.9768 17.3442H33.9792Z" fill="white"/>
<path d="M29.8337 71.8051C27.8241 70.5079 26.0231 69.0036 24.4375 67.3399C23.948 66.8258 23.1025 66.9924 22.8449 67.6588L17.2285 82.2255C16.8725 83.1467 17.9311 83.9607 18.7087 83.3656L30.897 74.0282C31.4497 73.6045 31.3935 72.7477 30.7939 72.3954C30.4707 72.205 30.1522 72.0098 29.8337 71.8051Z" fill="white"/>
<path d="M33.8761 75.4896L34.2485 84.0607C34.2907 85.0199 35.5203 85.3531 36.0262 84.5438L40.4972 77.3866C40.8626 76.8035 40.5324 76.0371 39.8672 75.9014C38.2886 75.5801 36.7241 75.1278 35.1877 74.5352C34.5366 74.2829 33.8457 74.7827 33.8761 75.4896Z" fill="white"/>
</svg>
