<svg width="19" height="19" viewBox="0 0 19 19" fill="none" xmlns="http://www.w3.org/2000/svg">
<path d="M10.6889 12.968C10.8609 13.047 11.0547 13.065 11.2384 13.0191C11.4221 12.9733 11.5846 12.8662 11.6993 12.7156L11.995 12.3282C12.1502 12.1213 12.3514 11.9534 12.5827 11.8377C12.8141 11.722 13.0691 11.6618 13.3278 11.6618H15.8267C16.2686 11.6618 16.6923 11.8374 17.0048 12.1498C17.3172 12.4622 17.4927 12.886 17.4927 13.3278V15.8268C17.4927 16.2686 17.3172 16.6924 17.0048 17.0048C16.6923 17.3172 16.2686 17.4927 15.8267 17.4927C11.8502 17.4927 8.03643 15.913 5.22456 13.1012C2.41268 10.2893 0.832987 6.47557 0.832987 2.49898C0.832987 2.05714 1.00851 1.63339 1.32094 1.32096C1.63337 1.00853 2.05712 0.833008 2.49896 0.833008H4.99792C5.43976 0.833008 5.86351 1.00853 6.17594 1.32096C6.48837 1.63339 6.66389 2.05714 6.66389 2.49898V4.99794C6.66389 5.25657 6.60367 5.51166 6.48801 5.74299C6.37235 5.97431 6.20441 6.17554 5.9975 6.33072L5.60766 6.6231C5.45474 6.73986 5.34696 6.90597 5.30262 7.09319C5.25828 7.28042 5.28012 7.47722 5.36443 7.65017C6.50286 9.96243 8.3752 11.8324 10.6889 12.968Z" stroke="#FFD700" stroke-width="1.66597" stroke-linecap="round" stroke-linejoin="round"/>
</svg>
